<?xml version="1.0" encoding="utf-8"?>
<!-- Generator: Adobe Illustrator 20.0.0, SVG Export Plug-In . SVG Version: 6.00 Build 0)  -->
<svg version="1.1" id="Layer_1" xmlns="http://www.w3.org/2000/svg" xmlns:xlink="http://www.w3.org/1999/xlink" x="0px" y="0px"
	 viewBox="0 0 320 340" style="enable-background:new 0 0 320 340;" xml:space="preserve">
<style type="text/css">
	.st0{fill:#E5B753;}
	.st1{fill:#FFFFFF;}
</style>
<path class="st0" d="M0,0h320v343H0V0z"/>
<g>
	<path class="st1" d="M196,142.8c-1.8,0-3.4,0.9-4.4,2.3c-1.6,0-3.2,0-4.9,0c-2.2,0-3.7,0.9-4.7,2.9c-3,6.1-6.1,12.2-9.1,18.2
		l-2.1,4.2c-0.2,0.4-0.4,0.6-0.4,0.7c0,0,0,0-0.1,0c0,0,0,0,0,0c-0.1-0.1-0.2-0.3-0.3-0.8c-2.7-8.1-7.7-23-9.5-28.4
		c-0.5-1.6-2-2.7-3.6-2.8c-1.7-0.1-3.2,0.8-4,2.3l-0.3,0.6c-1.1,2.3-2.3,4.5-3.4,6.7c-0.6,1.1-1.1,2.3-1.7,3.4
		c-0.9,1.8-1.8,3.7-2.8,5.5c-0.1,0.3-0.2,0.4-0.3,0.5c0,0-0.1,0-0.1,0c0,0,0,0,0,0c0-0.1-0.1-0.2-0.2-0.5c-1.2-3.6-3.5-10.4-4.4-13
		c-0.4-1.3-1.5-2.2-2.9-2.5c-1.3-0.3-2.7,0.2-3.6,1.2c-0.5,0.6-1,1.1-1.4,1.4c-0.3,0.3-0.7,0.4-0.8,0.4c-1.5,0.1-3.1,0.1-4.7,0
		c-0.4,0-0.8,0-1.2,0c-1.7,0-3.1,1.3-3.1,3.1c0,1.7,1.3,3.1,3.1,3.1c0.4,0,0.8,0,1.2,0c1.7,0,3.5,0.1,5.3-0.1
		c1.2-0.1,2.5-0.5,3.6-1.2c1.1,3.1,2.4,7.1,3.2,9.5c1.2,3.6,3.7,4.6,5.5,4.7c2.9,0.3,5.1-1,6.5-3.9c0.9-1.8,1.8-3.7,2.8-5.5
		c0.6-1.1,1.1-2.2,1.7-3.4c0.5-1,1-1.9,1.4-2.9c2.3,6.9,5.8,17.4,7.9,23.7c1,3,2.9,4.7,5.6,5c0.3,0,0.5,0,0.8,0
		c3.8,0,5.4-3.1,5.9-4.2l2.1-4.2c2.9-5.8,5.9-11.7,8.8-17.6c1.4,0,2.9,0,4.3,0c1,1.4,2.6,2.3,4.4,2.3c3,0,5.4-2.4,5.4-5.4
		C201.4,145.2,199,142.8,196,142.8z"/>
	<path class="st1" d="M234.4,220.6c0-29.6,0-59.3,0-88.9c0-15.9-11.6-27.4-27.5-27.4l-5.1,0v9.8l0.1,1.4l1.4,0
		c3.1-0.1,6.1-0.2,9.3,0.9c6.5,2.2,10.4,7.9,10.4,15.3l0,53.2l0,26.6c0,2.8,0,5.6,0,8.4c0,6.3-0.1,12.9,0.1,19.3
		c0.1,4.2-1.4,8.2-4.4,11.3c-3.1,3.2-7.3,4.9-11.9,4.9c-13.3-0.1-26.6-0.1-39.8-0.1l-50.7,0c-9.6,0-16.3-6.7-16.3-16.2
		c0-35.1,0-70.2,0-105.2c0-2.6,0.1-5.4,0.8-7.7c2-6.2,6.3-9.7,12.6-10.5c1.8-0.2,4.1-0.2,6.4-0.1l1.5,0v-11.4l-6.2,0
		c-2,0-3.8,0.2-5.6,0.6c-12.4,2.9-20.8,13.4-20.8,26.2l0,66.6c0,14,0,28.1,0.1,42.1c0,2.4,0.4,4.9,1.1,7.5
		c2.5,9.2,11.5,19.1,25.7,19.1l0.5,0c7-0.1,13.9-0.1,20.9-0.1c3,0,6.1,0,9.1,0l5.6,0l27.2,0c10.2,0,20.3,0,30.5-0.1
		c12.5-0.1,23.9-10.8,24.7-23.3c0.4-5.9,0.4-12,0.3-17.8L234.4,220.6z"/>
	<path class="st1" d="M196.3,114.3c0,2.8-1.2,4-4,4h-60.9c-3.4,0-4.4-1.1-4.4-4.5c0-2.7,0-6.6,0-9.3c0-2.4,1.3-3.6,3.6-3.7
		c2.6-0.1,5.2,0.1,7.7-0.4c4.4-0.9,7.8-3.4,10-7.3c0.8-1.3,1.5-2.7,2.3-4c1.7-2.9,4.3-4.4,7.7-4.5c2-0.1,3.9,0,5.9,0
		c4-0.1,6.8,1.7,8.8,5.1c1.5,2.5,3,5.2,5.1,7.2c3.2,3.2,7.3,4.1,11.8,4c6-0.2,6.3,0.3,6.3,6.2C196.3,109,196.3,112.3,196.3,114.3z"
		/>
	<g>
		<g>
			<g>
				<path class="st1" d="M119.2,200.5c0,2.9,0,5.7,0,8.6c13.4,0,26.7,0,40.2,0c0-2.8,0-5.6,0-8.6C146,200.5,132.7,200.5,119.2,200.5
					z"/>
			</g>
			<g>
				<path class="st1" d="M204.1,209.1c0-2.9,0-5.7,0-8.6c-8.9,0-21.8,0-30.7,0c0,2.8,0,5.6,0,8.6
					C182.2,209.1,195.1,209.1,204.1,209.1z"/>
			</g>
			<g>
				<path class="st1" d="M204.1,225.7c0,2.9,0,5.7,0,8.6c-13.4,0-26.7,0-40.2,0c0-2.8,0-5.6,0-8.6
					C177.3,225.7,190.6,225.7,204.1,225.7z"/>
			</g>
			<g>
				<path class="st1" d="M119.2,234.3c0-2.9,0-5.7,0-8.6c8.9,0,21.8,0,30.7,0c0,2.8,0,5.6,0,8.6C141,234.3,128.2,234.3,119.2,234.3z
					"/>
			</g>
		</g>
	</g>
</g>
</svg>
