<?xml version="1.0" encoding="utf-8"?>
<!-- Generator: Adobe Illustrator 20.0.0, SVG Export Plug-In . SVG Version: 6.00 Build 0)  -->
<svg version="1.1" id="Layer_1" xmlns="http://www.w3.org/2000/svg" xmlns:xlink="http://www.w3.org/1999/xlink" x="0px" y="0px"
	 viewBox="0 0 320 340" style="enable-background:new 0 0 320 340;" xml:space="preserve">
<style type="text/css">
	.st0{fill:#E5606B;}
	.st1{fill:#FFFFFF;}
</style>
<path class="st0" d="M0,0h320v343H0V0z"/>
<g>
	<path class="st1" d="M193,118.5c0,8-6.5,14.5-14.5,14.5c-8,0-14.5-6.5-14.5-14.5c0-8,6.5-14.5,14.5-14.5
		C186.5,104,193,110.5,193,118.5L193,118.5z"/>
	<path class="st1" d="M212.4,180.6c-2.8-1.3-21.6-10.6-21.6-10.6s-6.6-14.2-10.1-21.9c-3.2-7.3-5.6-9.2-10.2-9.2h-7.1
		c-3.7,0-5.1,1.4-7.4,2.6l-19.2,16.3c-1.7,1-2.8,2.4-3.4,4.5l-4.1,27.6c-0.6,4.4,1.7,6.3,4.4,6.8c2.1,0.5,5.3-0.6,6-3.7
		c0.5-2.6,4.4-25.2,4.4-25.2l12.5-9.6c-2.1,9.6-4.2,20.1-4.9,23.7c-1.2,6.1,1.8,10.7,4.3,14.4c2.2,3.3,30.5,48,34.3,52.8
		c3.7,4.9,7.2,7.3,12.4,4.4c4.4-2.4,3.6-8,1.2-12.1c-2.4-4.1-31-50.6-31-50.6l4.8-20.7c0,0,3.3,4.7,5,7.4c0.8,1.3,1.7,1.8,3.9,3
		c2.6,1.4,15.5,7.3,19.3,9c3.5,1.5,7.8,2.1,9.5-0.9C217.2,185.5,215,181.8,212.4,180.6L212.4,180.6z"/>
	<path class="st1" d="M149.1,199.4l-5.8,20.4c0,0-12.1,17.5-15.5,22.4c-2.5,3.7-4.4,8.2-0.1,11.4c4.9,3.7,8.7-1.1,11.2-3.9
		c2.3-2.6,11.7-15.7,14.3-19c1.8-2.2,2.7-4.1,3.5-6c0.5-1.2,2.4-6.4,3.6-9.8L149.1,199.4z"/>
</g>
</svg>
