<?xml version="1.0" encoding="utf-8"?>
<!-- Generator: Adobe Illustrator 20.0.0, SVG Export Plug-In . SVG Version: 6.00 Build 0)  -->
<svg version="1.1" id="Layer_1" xmlns="http://www.w3.org/2000/svg" xmlns:xlink="http://www.w3.org/1999/xlink" x="0px" y="0px"
	 viewBox="0 0 320 340" style="enable-background:new 0 0 320 340;" xml:space="preserve">
<style type="text/css">
	.st0{fill:#45C8E5;}
	.st1{fill:#FFFFFF;}
</style>
<path class="st0" d="M0,0h320v343H0V0z"/>
<path class="st1" d="M108.6,76.9c-1.5,0-2.7,1.2-2.7,2.7v19.2c0,1.5,1.2,2.7,2.7,2.7h11.3c1.5,0,2.7-1.2,2.7-2.7V79.6
	c0-1.5-1.2-2.7-2.7-2.7H108.6z M203.7,76.9c-1.5,0-2.7,1.2-2.7,2.7v19.2c0,1.5,1.2,2.7,2.7,2.7h11.2c1.5,0,2.7-1.2,2.7-2.7V79.6
	c0-1.5-1.2-2.7-2.7-2.7H203.7z M82.3,85.7C79.4,85.7,77,88,77,91v22.5c0,2.9,2.3,5.3,5.3,5.3h159c2.9,0,5.3-2.4,5.3-5.3V91
	c0-2.9-2.4-5.3-5.3-5.3h-19.4v14.8c0,2.9-2.3,5.3-5.3,5.3H202c-2.9,0-5.3-2.4-5.3-5.3V85.7h-69.9v14.8c0,2.9-2.4,5.3-5.3,5.3H107
	c-2.9,0-5.3-2.4-5.3-5.3V85.7H82.3z M82.3,129.6c-2.9,0-5.3,2.4-5.3,5.3v106c0,2.9,2.3,5.3,5.3,5.3h62.3c-0.8-2.3-1.5-4.7-2-7H88.8
	c-2.7,0-4.8-2-4.8-4.6v-93.5c0-2.6,2.1-4.6,4.8-4.6h145.9c2.7,0,4.9,2,4.9,4.6V188c2.6,2.7,4.9,5.5,6.9,8.6v-61.7
	c0-2.9-2.4-5.3-5.3-5.3H82.3z M144.9,144.9c-1.4,0-2.5,1-2.5,2.4v19.1c0,1.4,1.1,2.5,2.5,2.5h33.9c1.4,0,2.5-1.1,2.5-2.5v-19.1
	c0-1.4-1.1-2.4-2.5-2.4H144.9z M191.7,144.9c-1.4,0-2.5,1-2.5,2.4v19.1c0,1.4,1.1,2.5,2.5,2.5h33.9c1.4,0,2.5-1.1,2.5-2.5v-19.1
	c0-1.4-1.1-2.4-2.5-2.4H191.7z M98.1,175.9c-1.4,0-2.5,1.1-2.5,2.5v19.1c0,1.4,1.1,2.5,2.5,2.5h33.9c1.4,0,2.5-1.1,2.5-2.5v-19.1
	c0-1.4-1.1-2.5-2.5-2.5H98.1z M144.9,175.9c-1.4,0-2.5,1.1-2.5,2.5v19.1c0,1.4,1.1,2.5,2.5,2.5h3.6c5.8-10.3,14.9-18.8,25.6-24
	H144.9z M197.2,176.3c-6.5,0-8,0.5-8,4.1v5.4c0,1.1-0.9,1.9-1.9,2.2c-1.5,0.4-3,1-4.5,1.6c-1.4,0.6-2.8,1.2-4.2,2
	c-0.9,0.5-2,0.5-2.8-0.2c-1.3-1.3-2.6-2.6-3.9-3.9c-2.7-2.7-4.1-1.6-9.5,3.8c-5.4,5.4-6.5,6.9-3.8,9.6l3.8,3.8
	c0.8,0.8,0.7,1.9,0.2,2.8c-0.7,1.4-1.4,2.8-2,4.3c-0.6,1.5-1.2,3-1.6,4.5c-0.3,1-1.1,1.8-2.2,1.8h-5.4c-3.9,0-4.1,1.8-4.1,9.5
	c0,7.6,0.2,9.4,4.1,9.4h5.4c1.1,0,1.9,0.9,2.2,1.8c0.4,1.5,0.9,3,1.5,4.4c0.6,1.5,1.3,3,2,4.3c0.5,0.9,0.5,2-0.2,2.8
	c-1.3,1.3-2.5,2.6-3.8,3.9c-2.7,2.7-1.6,4.1,3.8,9.5c5.4,5.4,6.8,6.5,9.5,3.8l3.9-3.9c0.8-0.8,1.9-0.7,2.8-0.2
	c1.4,0.8,2.8,1.4,4.3,2c1.5,0.6,2.9,1.2,4.4,1.6c1,0.3,1.9,1,1.9,2.1v5.4c0,3.9,1.7,4.1,9.4,4.1c7.6,0,9.4-0.3,9.4-4.1v-5.4
	c0-1.1,0.9-1.8,1.9-2.1c1.5-0.4,3-1,4.4-1.6c1.5-0.6,2.9-1.3,4.3-2c0.9-0.5,2.1-0.5,2.8,0.2l3.9,3.9c2.7,2.7,4.1,1.6,9.5-3.8
	c5.4-5.4,6.5-6.8,3.8-9.5l-3.8-3.9c-0.8-0.8-0.8-1.9-0.3-2.8c0.8-1.4,1.5-2.9,2.1-4.3c0.6-1.4,1.1-2.9,1.5-4.4
	c0.3-1,1.1-1.8,2.2-1.8h5.4c3.9,0,4.1-1.7,4.1-9.4c0-7.6-0.2-9.5-4.1-9.5h-5.4c-1.1,0-1.9-0.9-2.2-1.8c-0.4-1.5-1-3-1.6-4.5
	c-0.6-1.4-1.3-2.9-2-4.3c-0.5-0.9-0.5-2,0.3-2.8l3.8-3.8c2.7-2.7,1.6-4.2-3.8-9.6c-5.4-5.4-6.8-6.5-9.5-3.8l-3.9,3.9
	c-0.8,0.8-1.9,0.7-2.8,0.2c-1.4-0.7-2.8-1.4-4.2-2c-1.5-0.6-3-1.2-4.5-1.6c-1-0.3-1.9-1.1-1.9-2.2v-5.4c0-3.9-1.7-4.1-9.4-4.1
	C198.1,176.3,197.6,176.3,197.2,176.3z M198.6,199.2c15.7,0,28.3,12.7,28.3,28.4c0,15.7-12.7,28.3-28.3,28.3
	c-15.7,0-28.3-12.7-28.3-28.3C170.3,211.9,182.9,199.2,198.6,199.2z M98.1,207c-1.4,0-2.5,1.1-2.5,2.5v19.1c0,1.4,1.1,2.4,2.5,2.4
	h33.9c1.4,0,2.5-1,2.5-2.4v-19.1c0-1.4-1.1-2.5-2.5-2.5H98.1z"/>
</svg>
