<?xml version="1.0" encoding="utf-8"?>
<!-- Generator: Adobe Illustrator 20.0.0, SVG Export Plug-In . SVG Version: 6.00 Build 0)  -->
<svg version="1.1" id="Layer_1" xmlns="http://www.w3.org/2000/svg" xmlns:xlink="http://www.w3.org/1999/xlink" x="0px" y="0px"
	 viewBox="0 0 320 340" style="enable-background:new 0 0 320 340;" xml:space="preserve">
<style type="text/css">
	.st0{fill:#F77760;}
	.st1{fill:#FFFFFF;}
</style>
<path class="st0" d="M0,0h320v343H0V0z"/>
<g>
	<path class="st1" d="M136.2,214.4c-16.1-4.9-30.9-14.2-42.7-26.4c-3.7-3.9-9.8-4.1-13.8-0.4s-4.1,9.8-0.4,13.8
		c14,14.8,31.7,25.6,51,31.7c1,0.2,2,0.4,3,0.4c4.1,0,8.1-2.8,9.5-6.9C144.3,221.5,141.6,216,136.2,214.4z"/>
	<path class="st1" d="M251,187.8c-3.9-3.7-10-3.5-13.8,0.4c-11.8,12.2-26.4,21.5-42.5,26.4c-5.1,1.6-8.1,7.1-6.5,12.2
		c1.4,4.1,5.1,6.9,9.5,6.9c1,0,2-0.2,3-0.4c19.3-5.9,37-16.9,51-31.5C255,197.7,254.8,191.6,251,187.8z"/>
	<path class="st1" d="M129.4,198.1c1.4,0.6,2.8,1,4.1,1c3.7,0,7.3-2.2,8.9-5.7c2.4-4.9,0.2-10.8-4.7-13c-7.7-3.5-14.6-8.5-20.5-14.6
		c-3.7-3.9-9.8-4.1-13.8-0.4c-3.9,3.7-4.1,9.8-0.4,13.8C110.4,187.3,119.3,193.6,129.4,198.1z"/>
	<path class="st1" d="M188.4,193.4c1.6,3.5,5.1,5.7,8.9,5.7c1.4,0,2.8-0.2,4.1-1c9.8-4.5,18.7-10.8,26.4-18.9
		c3.7-3.9,3.5-10-0.4-13.8c-3.9-3.7-10-3.5-13.8,0.4c-5.9,6.1-12.8,11-20.5,14.6C188.4,182.5,186.3,188.4,188.4,193.4z"/>
	<path class="st1" d="M204.4,156.9c3.7-3.9,3.5-10-0.4-13.8c-3.9-3.7-10-3.5-13.8,0.4c-6.5,6.9-15.4,10.6-24.8,10.6
		s-18.3-3.7-24.8-10.6c-3.7-3.9-9.8-4.1-13.8-0.4c-3.9,3.7-4.1,9.8-0.4,13.8c8.1,8.5,18.5,14,29.7,15.9V227c0,5.1,4.1,9.3,9.3,9.3
		s9.3-4.1,9.3-9.3v-54.1C186.1,170.9,196.3,165.4,204.4,156.9z"/>
	<circle class="st1" cx="165.4" cy="123.8" r="17.1"/>
</g>
</svg>
